<svg width="299" height="400" viewBox="0 0 299 400" fill="none" xmlns="http://www.w3.org/2000/svg">
<g clip-path="url(#clip0)">
<path d="M178.381 2.32407H120.506C109.997 2.32407 101.477 12.0607 101.477 24.0713V76.5097C101.477 88.5204 109.997 98.257 120.506 98.257H178.381C188.891 98.257 197.41 88.5204 197.41 76.5097V24.0713C197.41 12.0607 188.891 2.32407 178.381 2.32407Z" fill="white"/>
<path d="M178.381 102.905H120.506C109.997 102.905 101.477 112.642 101.477 124.652V177.091C101.477 189.101 109.997 198.838 120.506 198.838H178.381C188.891 198.838 197.41 189.101 197.41 177.091V124.652C197.41 112.642 188.891 102.905 178.381 102.905Z" fill="white"/>
<path d="M178.381 203.486H120.506C109.997 203.486 101.477 213.223 101.477 225.233V277.672C101.477 289.682 109.997 299.419 120.506 299.419H178.381C188.891 299.419 197.41 289.682 197.41 277.672V225.233C197.41 213.223 188.891 203.486 178.381 203.486Z" fill="white"/>
<path d="M178.381 304.067H120.506C109.997 304.067 101.477 313.804 101.477 325.814V378.253C101.477 390.263 109.997 400 120.506 400H178.381C188.891 400 197.41 390.263 197.41 378.253V325.814C197.41 313.804 188.891 304.067 178.381 304.067Z" fill="white"/>
<path d="M279.425 2.32407H221.55C211.041 2.32407 202.521 12.0607 202.521 24.0713V76.5097C202.521 88.5204 211.041 98.257 221.55 98.257H279.425C289.935 98.257 298.454 88.5204 298.454 76.5097V24.0713C298.454 12.0607 289.935 2.32407 279.425 2.32407Z" fill="white"/>
<path d="M76.9041 102.905H19.0288C8.5195 102.905 0 112.642 0 124.652V177.091C0 189.101 8.5195 198.838 19.0288 198.838H76.9041C87.4134 198.838 95.9329 189.101 95.9329 177.091V124.652C95.9329 112.642 87.4134 102.905 76.9041 102.905Z" fill="white"/>
<path d="M76.9041 203.486H19.0288C8.5195 203.486 0 213.223 0 225.233V277.672C0 289.682 8.5195 299.419 19.0288 299.419H76.9041C87.4134 299.419 95.9329 289.682 95.9329 277.672V225.233C95.9329 213.223 87.4134 203.486 76.9041 203.486Z" fill="white"/>
<path d="M76.9041 304.067H19.0288C8.5195 304.067 0 313.804 0 325.814V378.253C0 390.263 8.5195 400 19.0288 400H76.9041C87.4134 400 95.9329 390.263 95.9329 378.253V325.814C95.9329 313.804 87.4134 304.067 76.9041 304.067Z" fill="white"/>
<path d="M279.425 202.127H221.55C211.041 202.127 202.521 211.863 202.521 223.874V276.313C202.521 288.323 211.041 298.06 221.55 298.06H279.425C289.935 298.06 298.454 288.323 298.454 276.313V223.874C298.454 211.863 289.935 202.127 279.425 202.127Z" fill="white"/>
<path d="M92.8202 46.8925C92.8202 72.7905 72.1299 93.785 46.6073 93.785C21.0846 93.785 0.394348 72.7905 0.394348 46.8925C0.394348 20.9945 21.0846 0 46.6073 0C72.1299 0 92.8202 20.9945 92.8202 46.8925Z" fill="white"/>
</g>
<defs>
<clipPath id="clip0">
<rect width="298.454" height="400" fill="white"/>
</clipPath>
</defs>
</svg>
